<?xml version="1.0" encoding="utf-8"?>
<!-- Generator: Adobe Illustrator 15.1.0, SVG Export Plug-In  -->
<!DOCTYPE svg PUBLIC "-//W3C//DTD SVG 1.1//EN" "http://www.w3.org/Graphics/SVG/1.1/DTD/svg11.dtd" [
	<!ENTITY ns_flows "http://ns.adobe.com/Flows/1.0/">
]>
<svg version="1.1"
	 xmlns="http://www.w3.org/2000/svg" xmlns:xlink="http://www.w3.org/1999/xlink" xmlns:a="http://ns.adobe.com/AdobeSVGViewerExtensions/3.0/"
	 x="0px" y="0px" width="641px" height="556px" viewBox="-0.489 -18.079 641 556"
	 overflow="visible" enable-background="new -0.489 -18.079 641 556" xml:space="preserve">
<defs>
</defs>
<path fill="#FFFFFF" d="M350.898,171.079c-2,0-4,0-6,0c-0.585,0-2.101,0.886-0.808,0.886c2,0,4,0,6,0
	C350.675,171.964,352.191,171.079,350.898,171.079L350.898,171.079z"/>
<path fill="#BE1E2D" d="M181.413,138.309c-4.099-54.006,70.682-85.183,125.927-84.378c0.623,0.009,3.344-0.996,1.894-1.018
	c-28.848-0.421-58.237,6.855-82.91,19.314c-24.989,12.62-45.638,32.702-47.858,58.032c-0.253,2.899-0.197,5.811,0.022,8.71
	C178.522,139.429,181.466,138.997,181.413,138.309L181.413,138.309z"/>
<path fill="#BE1E2D" d="M310.078,52.879c-7.952-0.535-14.722-4.33-20.006-7.494c-5.473-3.276-10.768-7.146-13.706-11.401
	c-0.423-0.612-3.442-0.083-3.059,0.472c3.139,4.545,8.833,8.568,14.663,12.059c5.287,3.166,12.317,6.782,20.232,7.314
	C309.153,53.892,311.801,52.995,310.078,52.879L310.078,52.879z"/>
<path fill="#BE1E2D" d="M299.694,53.126c0.24,7.04-3.968,14.104-6.113,20.909c-1.807,5.729-3.635,13.312,2.995,17.956
	c1.145,0.802,4.767-0.24,3.505-1.123c-6.9-4.834-4.019-12.923-2.096-18.77c2.057-6.256,5.784-12.711,5.562-19.202
	C303.501,51.578,299.656,52.032,299.694,53.126L299.694,53.126z"/>
<rect x="5.511" y="209.213" fill="none" width="287.565" height="212.794"/>
<text transform="matrix(1 0 0 1 27.9209 194.2007)" fill="#BE1E2D" font-family="'Ampersand'" font-size="45">Your favorite </text>
<text transform="matrix(1 0 0 1 34.4839 237.4009)" fill="#BE1E2D" font-family="'Ampersand'" font-size="45">pair of jeans</text>
<rect y="420.918" fill="none" width="287.077" height="212.794"/>
<text transform="matrix(1 0 0 1 57.0938 334.9067)" enable-background="new    "><tspan x="0" y="0" fill="#BE1E2D" font-family="'Ampersand'" font-size="45">(We&apos;ll compare </tspan><tspan x="0" y="54" fill="#BE1E2D" font-family="'Ampersand'" font-size="45">all our pants to it)</tspan></text>
<path d="M356.56,48.707c0.265,149.998,29.679,299.25,15.909,449.342c-0.036,0.379,3.354,0.046,3.459-1.094
	c13.77-150.094-15.644-299.343-15.909-449.342C360.018,47.098,356.558,47.646,356.56,48.707L356.56,48.707z"/>
<path d="M377.491,496.972c14.632,0.195,29.294,3.052,43.884,4.309c13.403,1.15,29.334,3.203,42.31-2.237
	c13.649-5.721,13.311-25.13,12.083-39.479c-0.872-10.185-3.307-20.043-4.466-30.157c-2.048-17.838-4.166-35.661-6.221-53.492
	c-3.916-34.051-7.494-68.152-9.881-102.407c-2.064-29.616-2.116-59.313-4.064-88.929c-1.537-23.381-6.149-56.265,9.358-74.617
	c6.078-7.195,11.754-13.695,14.649-23.527c4.017-13.654,5.583-28.324,5.186-42.72c-0.066-1.117-0.134-2.235-0.2-3.351
	c-0.075-1.246-3.545-0.407-3.458,1.09c0.857,14.341-0.779,28.306-4.068,42.097c-3.074,12.885-10.535,20.164-17.893,29.55
	c-10.878,13.876-8.683,39.407-7.946,56.679c2.415,56.909,4.891,113.757,10.786,170.351c3.286,31.549,7.155,63.001,10.769,94.498
	c1.949,17,11.616,46.431-1.569,60.31c-4.914,5.173-14.923,4.777-21.01,4.996c-8.389,0.309-16.802-0.325-25.162-1.047
	c-13.871-1.188-27.799-3.938-41.722-4.125C377.618,494.747,375.155,496.941,377.491,496.972L377.491,496.972z"/>
<path d="M448.025,48.138c0.162,8.305,2.148,16.136,3.591,24.207c0.292,1.633,3.758,0.592,3.457-1.09
	c-1.399-7.829-3.411-15.479-3.568-23.537C451.465,45.801,447.996,46.595,448.025,48.138L448.025,48.138z"/>
<path d="M451.594,80.388c-0.002,8.01-0.139,15.939-1.194,23.871c-0.271,2.033,3.258,1.479,3.498-0.323
	c1.059-7.929,1.191-15.861,1.193-23.871C455.095,77.951,451.594,78.588,451.594,80.388L451.594,80.388z"/>
<path d="M468.323,111.39c-1.18,62.773,25.792,122.091,41.097,180.74c9.22,35.322,13.822,71.898,7.822,108.525
	c-2.137,13.039-3.788,25.93-3.125,39.226c0.868,17.443,5.638,34.45,4.316,52.047c-0.117,1.557,3.353,0.747,3.45-0.547
	c1.166-15.528-2.064-30.944-3.784-46.265c-1.713-15.269,0.223-30.015,2.592-45.008c5.452-34.495,1.949-68.206-5.996-101.783
	c-14.551-61.494-44.15-122.077-42.924-187.481C471.802,109.245,468.345,110.133,468.323,111.39L468.323,111.39z"/>
<path d="M519.429,496.774c26.022,0.118,52.086,2.582,77.986-1.456c1.472-0.229,3.025-2.077,0.598-1.703
	c-25.595,3.993-51.411,1.461-77.126,1.35C519.869,494.956,517.121,496.764,519.429,496.774L519.429,496.774z"/>
<path d="M600.654,494.293c-0.126-150.906-14.187-301.248-14.317-452.152c-0.002-2.072-3.494-1.402-3.492,0.344
	c0.127,150.905,14.188,301.244,14.317,452.152C597.16,496.708,600.658,496.038,600.654,494.293L600.654,494.293z"/>
<path d="M358.443,50.55c0.003-5.716,0.042-11.418,0.292-17.129c0.336-7.749,1.807-9.037,8.091-10.735
	c12.044-3.256,24.617-3.333,36.875-2.313c22.792,1.897,45.085,9.19,67.301,15.041c19.685,5.184,39.567,9.228,59.811,8.661
	c18.234-0.509,35.67-1.934,50.128-16.386c1.788-1.789-1.02-2.87-2.244-1.644c-16.222,16.221-38.598,16.061-58.845,15.198
	c-19.826-0.846-39.374-6.339-58.625-11.558c-34.078-9.24-69.104-18.693-103.624-6.896c-0.58,0.199-1.354,0.659-1.453,1.458
	c-1.104,8.867-1.186,17.733-1.192,26.68C354.953,52.93,358.441,52.212,358.443,50.55L358.443,50.55z"/>
<path d="M376.288,481.481c17.765,0.177,35.521,2.995,53.28,3.76c10.894,0.472,30.327,3.448,39.461-5.967
	c1.467-1.51-1.975-1.298-2.734-0.514c-4.639,4.784-13.771,4.258-19.491,4.49c-8.795,0.363-17.624-0.134-26.404-0.695
	c-14.219-0.905-28.476-3.047-42.724-3.192C376.487,479.35,373.956,481.458,376.288,481.481L376.288,481.481z"/>
<path d="M524.224,485.618c21.067,0.303,49.717,9.875,67.686-7.811c1.451-1.425-2.003-1.082-2.709-0.387
	c-16.359,16.1-44.082,6.509-63.557,6.23C524.54,483.637,521.901,485.584,524.224,485.618L524.224,485.618z"/>
<path d="M545.882,58.047c-1.281,13.854-3.485,29.912,1.95,42.943c5.294,12.691,19.062,16.748,29.712,19.561
	c0.965,0.255,4.059-1.518,2.16-2.016c-11.146-2.945-23.605-7.117-29.033-20.123c-5.05-12.101-2.527-28.205-1.35-40.945
	C549.457,56.023,545.994,56.832,545.882,58.047L545.882,58.047z"/>
<path d="M370.806,103.929c27.331-2.466,23.956-35.593,21.029-59.354c-0.186-1.536-3.662-0.567-3.457,1.09
	c2.489,20.219,7.561,53.56-17.151,55.79C369.449,101.615,368.42,104.146,370.806,103.929L370.806,103.929z"/>
<path d="M358.426,23.512c-1.267-6.065-2.312-12.189-3.58-18.255c-0.351-1.679-3.812-0.604-3.457,1.09
	c1.267,6.065,2.311,12.191,3.58,18.255C355.318,26.281,358.783,25.207,358.426,23.512L358.426,23.512z"/>
<path d="M355.371,5.974c21.957,0.131,43.768,2.694,65.499,6.22c21.738,3.528,43.256,9.375,65.017,12.486
	c18.635,2.665,37.196-3.89,55.915-2.226c6.793,0.604,13.082,0.129,19.122-3.71c7.648-4.868,12.94-12.809,21.622-15.668
	c2.136-0.706,1.468-3.676-0.677-2.968c-5.878,1.94-10.546,5.563-15.324,9.932c-4.929,4.502-9.178,8.345-15.702,9.31
	c-5.205,0.768-10.674-0.261-15.873-0.79c-7.97-0.809-16.01,0.992-23.908,2.115c-11.39,1.62-22.271,1.47-33.578-0.883
	c-40.282-8.383-80.81-16.722-121.837-16.968C353.608,2.811,353.033,5.96,355.371,5.974L355.371,5.974z"/>
<path d="M581.667,2.134c-0.002,7.429-0.04,14.868-1.188,22.196c-0.23,1.473,3.242,0.765,3.45-0.547
	c1.175-7.502,1.193-15.134,1.195-22.737C585.125-0.119,581.667,0.625,581.667,2.134L581.667,2.134z"/>
<path d="M465.758,17.485c-4.849,2.745-7.894,8.632-4.947,14.688c2.703,5.55,8.089,6.791,12.72,3.827
	c5.017-3.21,4.763-9.177,0.896-13.522c-4.403-4.948-11.076-5.449-16.216-1.938c-2.024,1.383,0.973,2.253,2.195,1.419
	c3.597-2.456,7.866-0.848,10.823,2.179c2.339,2.39,4.195,6.999,1.163,9.709c-3.255,2.915-6.897,0.153-8.483-3.585
	c-1.815-4.271-0.318-8.838,3.267-10.866C469.332,18.176,467.371,16.573,465.758,17.485L465.758,17.485z"/>
<path d="M403.889,10.559c0,1.405,0,2.808,0,4.213c0,1.093,3.457,0.373,3.457-1.09c0-1.405,0-2.808,0-4.212
	C407.345,8.378,403.889,9.096,403.889,10.559L403.889,10.559z"/>
<path d="M371.674,10.559c0,2.341,0,4.681,0,7.021c0,1.087,3.457,0.369,3.457-1.09c0-2.341,0-4.681,0-7.02
	C375.13,8.384,371.674,9.1,371.674,10.559L371.674,10.559z"/>
<path d="M530.364,21.794c-0.006,5.79-0.263,11.323-2.366,16.65c-0.289,0.727,2.993,0.376,3.415-0.691
	c2.161-5.465,2.404-11.115,2.408-17.05C533.821,19.962,530.364,20.571,530.364,21.794L530.364,21.794z"/>
<path d="M505.289,31.252c0,1.405,0,2.808,0,4.212c0,2.064,3.492,1.389,3.492-0.348c0-1.405,0-2.808,0-4.212
	C508.784,28.84,505.289,29.516,505.289,31.252L505.289,31.252z"/>
<path d="M562.579,16.177c0,5.148,0,10.298,0,15.445c0,0.753,3.457,0.14,3.457-1.09c0-5.149,0-10.298,0-15.446
	C566.036,14.333,562.579,14.947,562.579,16.177L562.579,16.177z"/>
</svg>
