<?xml version="1.0" encoding="utf-8"?>
<!-- Generator: Adobe Illustrator 15.1.0, SVG Export Plug-In  -->
<!DOCTYPE svg PUBLIC "-//W3C//DTD SVG 1.1//EN" "http://www.w3.org/Graphics/SVG/1.1/DTD/svg11.dtd" [
	<!ENTITY ns_flows "http://ns.adobe.com/Flows/1.0/">
]>
<svg version="1.1"
	 xmlns="http://www.w3.org/2000/svg" xmlns:xlink="http://www.w3.org/1999/xlink" xmlns:a="http://ns.adobe.com/AdobeSVGViewerExtensions/3.0/"
	 x="0px" y="0px" width="517px" height="198px" viewBox="-3.4 -13.545 517 198"
	 overflow="visible" enable-background="new -3.4 -13.545 517 198" xml:space="preserve">
<defs>
</defs>
<g>
	<g>
		<path d="M44.48,9.274c-13.625-0.059-27.992-0.943-37.085,11.1C-1.557,32.23-1.906,50.027,3.798,63.243
			c10.211,23.661,53.684,32.514,67.66,7.701c0.43-0.764-4.897-0.431-5.716,1.022c-6.649,11.805-19.715,12.542-31.64,9.459
			C22.703,78.479,13.786,71.403,9.096,60.538C4.623,50.173,4.903,37.892,8.805,27.433c2.211-5.929,6.115-12.125,12.188-14.594
			c5.917-2.406,13.489-1.229,19.727-1.203C41.932,11.641,47.327,9.287,44.48,9.274L44.48,9.274z"/>
	</g>
</g>
<g>
	<g>
		<path d="M87.668,7.973c0,25,0,50,0,75c0,0.964,3.863,0.304,3.863-1.035c0-25,0-50,0-75C91.532,5.974,87.668,6.634,87.668,7.973
			L87.668,7.973z"/>
	</g>
</g>
<g>
	<g>
		<path d="M133.174,48.659c-6.591-1.373-20.401-2.46-19.995,7.746c0.364,9.15,9.658,18.126,16.64,22.892
			c7.073,4.828,17.187,7.127,23.759,0.168c4.006-4.241,5.723-11.775,4.964-17.398c-1.063-7.88-8.915-12.954-15.725-15.469
			c-8.427-3.112-19.396-2.979-26.715,2.733c-1.604,1.251,2.261,0.819,2.994,0.247c11.722-9.146,35.774,1.012,35.772,16.391
			c0,4.989-2.08,11.705-6.118,14.914c-3.332,2.648-8.199,0.868-11.583-0.775c-7.769-3.772-14.686-10.964-18.406-18.719
			c-1.333-2.778-2.416-6.249-1.213-9.248c1.796-4.478,9.051-2.604,12.476-1.89C130.993,50.453,134.39,48.912,133.174,48.659
			L133.174,48.659z"/>
	</g>
</g>
<g>
	<g>
		<path d="M185.668,8.973c0,29,0,58,0,87c0,0.932,3.863,0.282,3.863-1.035c0-29,0-58,0-87
			C189.532,7.005,185.668,7.656,185.668,8.973L185.668,8.973z"/>
	</g>
</g>
<g>
	<g>
		<path d="M164.81,44.405c16,0,32,0,48,0c1.252,0,4.178-1.899,1.581-1.899c-16,0-32,0-48,0
			C165.138,42.505,162.213,44.405,164.81,44.405L164.81,44.405z"/>
	</g>
</g>
<g>
	<g>
		<path d="M216.641,1.595c0,33,0,66,0,99c0,2.068,3.719,1.481,3.918-0.28c0.983-8.699,0.445-19.01,4.661-26.926
			c3.011-5.653,9.441-2.961,12.947,0.48c3.492,3.428,6.679,7.043,11.323,8.907c1.668,0.67,4.511-1.723,2.22-2.643
			c-3.655-1.468-6.347-4.266-9.063-7.025c-1.572-1.597-3.693-4.345-5.937-4.975c-4.193-1.179-8.064-1.351-11.862,0.98
			c-3.597,2.209-4.91,7.068-5.784,10.884c-1.538,6.718-1.652,13.767-2.423,20.597c1.306-0.093,2.612-0.187,3.918-0.28
			c0-33,0-66,0-99C220.559-0.744,216.641-0.18,216.641,1.595L216.641,1.595z"/>
	</g>
</g>
<g>
	<g>
		<path d="M259.546,71.266c2.208-10.139,7.577-19.28,9.172-29.649c0.58-3.77,0.619-8.176-1.986-11.234
			c-2.805-3.292-8.695-3.1-12.445-2.096c-4.679,1.254-4.019,12.778-3.543,16.394c0.942,7.168,5.256,13.593,10.534,18.317
			c10.716,9.591,26.61,11.389,39.138,4.444c2.312-1.282,0.195-2.989-1.631-1.977c-22.708,12.589-52.227-11.004-42.358-35.87
			c-0.68,0.374-1.359,0.748-2.038,1.121c21.91-3.942,3.251,31.807,1.266,40.926C255.28,73.364,259.211,72.805,259.546,71.266
			L259.546,71.266z"/>
	</g>
</g>
<g>
	<g>
		<path d="M325.416,43.78c-6.603-3.707-16.39-4.912-21.573,1.789c-5.53,7.149,1.677,14.473,6.971,19.052
			c7.977,6.898,16.113,11.284,20.261,21.615c1.598,3.98,2.105,11.871-4.225,11.44c-6.351-0.432-11.806-6.247-15.434-10.896
			c-0.607-0.779-4.288,0.508-3.631,1.35c5.173,6.63,13.021,13.232,21.99,10.665c8.353-2.39,6.587-11.275,3.442-17.31
			c-4.412-8.471-12.639-12.91-19.63-18.956c-3.394-2.935-6.795-6.42-7.805-10.926c-0.614-2.74,0.722-5.158,2.331-7.239
			c3.155-4.079,10.279-1.138,13.671,0.766C322.792,45.696,326.008,44.113,325.416,43.78L325.416,43.78z"/>
	</g>
</g>
<g>
	<g>
		<path d="M345.641,6.597c0.026,24.337,0.943,48.708-1,73c-0.162,2.027,3.775,1.494,3.918-0.283c1.943-24.292,1.025-48.662,1-73
			C349.557,4.26,345.639,4.83,345.641,6.597L345.641,6.597z"/>
	</g>
</g>
<g>
	<g>
		<path d="M370.668,46.973c0.911,13.32,0.999,26.655,1,40c0,0.654,3.863,0.09,3.863-1.035c0-13.345-0.088-26.681-1-40
			C374.482,45.21,370.594,45.896,370.668,46.973L370.668,46.973z"/>
	</g>
</g>
<g>
	<g>
		<path d="M389.668,53.973c-0.056,10.361-0.865,20.739,1,31c0.229,1.256,3.703,0.292,3.859-0.774
			c1.702-11.619,0.546-31.266,16.486-31.729c14.72-0.428,18.492,22.081,21.654,32.502c0.392,1.292,4.243,0.217,3.863-1.035
			c-4.3-14.175-7.916-34.047-26.409-33.495c-17.894,0.535-17.548,21.286-19.45,34.269c1.286-0.258,2.573-0.516,3.859-0.774
			c-1.864-10.258-1.056-20.64-1-31C393.538,51.821,389.676,52.523,389.668,53.973L389.668,53.973z"/>
	</g>
</g>
<g>
	<g>
		<path d="M444.839,70.518c3.444,0.306,8.298,0.068,9.805-3.694c1.42-3.544-3.142-7.991-5.711-9.569
			c-8.177-5.024-17.639,0.674-17.703,10.101c-0.071,10.473,10.119,20.642,18.137,25.974c7.788,5.179,18.622,9.021,26.775,2.416
			c1.708-1.384-2.157-1.331-3.084-0.58c-5.835,4.727-14.422,0.283-19.792-3.125c-6.553-4.158-12.348-10.317-15.861-17.242
			c-2.307-4.544-4.572-16.07,3.146-17.429c3.227-0.568,6.627,2.459,8.502,4.708c0.954,1.144,1.57,2.479,1.837,3.934
			c0.505,2.753-2.652,2.55-4.529,2.383C444.928,68.265,442.237,70.286,444.839,70.518L444.839,70.518z"/>
	</g>
</g>
<g>
	<g>
		<path d="M474.668,60.973c0,9.333,0,18.667,0,28c1.288-0.345,2.575-0.69,3.863-1.035c-2.407-10.768-4.713-21.589-5.375-32.632
			c-0.324-5.412-0.51-11.687,2.091-16.62c3.25-6.163,12.247,1.759,15.529,4.417c0.8,0.647,4.167-0.875,3.646-1.296
			c-4.867-3.94-11.521-8.939-18.17-6.379c-5.354,2.062-6.505,7.484-6.944,12.699c-1.147,13.611,2.409,27.653,5.359,40.846
			c0.174,0.78,3.863-0.118,3.863-1.035c0-9.333,0-18.667,0-28C478.532,59.369,474.668,59.907,474.668,60.973L474.668,60.973z"/>
	</g>
</g>
<g>
	<g>
		<path d="M373.837,28.51c1.391,0,4.134-2.11,1.525-2.11C373.972,26.4,371.229,28.51,373.837,28.51L373.837,28.51z"/>
	</g>
</g>
<g>
	<g>
		<path d="M373.903,28.754c1.711,0,4.007-2.599,1.395-2.599C373.586,26.156,371.291,28.754,373.903,28.754L373.903,28.754z"/>
	</g>
</g>
<g>
	<g>
		<path d="M373.837,28.51c1.391,0,4.134-2.11,1.525-2.11C373.972,26.4,371.229,28.51,373.837,28.51L373.837,28.51z"/>
	</g>
</g>
<g>
	<g>
		<path d="M372.735,26.199c-0.132,0.114-0.084,0.087,0.144-0.083c0.199-0.112,0.409-0.196,0.63-0.251
			c-0.104,0.034-0.213,0.056-0.319,0.08c-0.492,0.112-0.977,0.288-1.414,0.542c-0.882,0.511-1.126,1.219-0.773,2.151
			c0.224,0.592,1.155,0.535,1.646,0.467c0.831-0.115,1.812-0.457,2.212-1.25c0.227-0.452,0.766-1.158,0.59-1.71
			c-0.063-0.197-0.238-0.375-0.378-0.524c-0.258-0.276-0.473-0.579-0.671-0.9c-0.322-0.522-1.604-0.262-2.035-0.146
			c-0.566,0.152-1.815,0.604-1.696,1.396c0.045,0.296,0.065,0.476,0.036,0.668c-0.019,0.117-0.15,0.354,0.045,0.002
			c-0.079,0.113-0.015,0.053,0.192-0.182c0.333-0.205,0.435-0.275,0.307-0.209c0.314-0.127,0.629-0.254,0.943-0.381
			c0.168-0.034,0.336-0.068,0.505-0.103c0.505,0.084,1.009,0.168,1.514,0.252c-0.001-0.001-0.002-0.001-0.002-0.002
			c-0.005,0.243-0.009,0.486-0.014,0.729c0.001-0.001,0.002-0.002,0.003-0.003c-0.203,0.167-0.406,0.334-0.608,0.501
			c-0.429,0.236-0.882,0.389-1.36,0.459c-0.41,0.021-0.52,0.03-0.328,0.028c0.156,0.007,0.096,0.002-0.182-0.014
			c0.117,0.012,0.232,0.036,0.349,0.057c0.781,0.147,1.701-0.101,2.378-0.49c0.562-0.324,1.127-0.949,0.37-1.388
			c-0.496-0.288-0.989-0.429-1.567-0.444c-0.871-0.023-2.192,0.332-2.728,1.1c-0.18,0.259-0.227,0.458-0.237,0.757
			c-0.004,0.114-0.01,0.226-0.025,0.339c-0.007,0.042-0.017,0.084-0.029,0.125c-0.007,0.02-0.015,0.039-0.021,0.058
			c0.098-0.248,0.28-0.429,0.547-0.542c-0.465,0.279-1.222,1.03-0.37,1.388c0.822,0.346,1.997,0.045,2.728-0.393
			c0.469-0.281,0.927-0.662,1.006-1.234c0.02-0.134,0.017-0.271,0.022-0.406c0.033-0.73,0.501,0.035-0.976,0.544
			c-0.343,0.092-0.686,0.184-1.027,0.275c-0.242,0.002-0.484,0.005-0.727,0.008c-0.211-0.062-0.235-0.062-0.075,0
			c0.133,0.056,0.258,0.133,0.383,0.205c0.916-0.626,1.832-1.252,2.748-1.878c-0.56-0.105-1.099-0.12-1.664-0.067
			c-0.728,0.068-1.743,0.403-2.182,1.021c-0.149,0.211-0.255,0.526-0.013,0.729c0.516,0.433,1.451,0.343,2.055,0.144
			c0.602-0.198,1.207-0.428,1.619-0.935c0.397-0.489,0.338-1.175,0.25-1.756c-1.244,0.417-2.488,0.833-3.731,1.25
			c0.167,0.271,0.346,0.528,0.553,0.771c0.069,0.08,0.143,0.156,0.215,0.233c0.078,0.084,0.146,0.261,0.017-0.011
			c0.04,0.083-0.011,0.197,0.021-0.077c-0.01,0.088-0.053,0.176-0.087,0.257c-0.147,0.351-0.34,0.686-0.511,1.026
			c1.286-0.261,2.572-0.522,3.857-0.783c-0.053-0.14-0.1-0.278-0.14-0.422c-0.018-0.072-0.03-0.145-0.037-0.218
			c-0.011,0.102-0.008,0.104,0.009,0.005c-0.059,0.301-0.78,0.617-0.888,0.667c-0.608,0.281-0.368,0.119-0.149,0.068
			c0.757-0.173,1.557-0.462,2.14-0.993c0.574-0.522,0.483-1.107-0.333-1.243C374.594,25.322,373.4,25.594,372.735,26.199
			L372.735,26.199z"/>
	</g>
</g>
<g>
	<g>
		<path d="M93.338,106.208c94.424,0.081,189.208,12.083,283.414,0.981c0.938-0.111,4.22-1.766,1.697-1.469
			c-93.925,11.068-188.443-0.938-282.586-1.019C95.097,104.701,91.475,106.207,93.338,106.208L93.338,106.208z"/>
	</g>
</g>
<g>
	<g>
		<path d="M309.723,146.674c0.715,0,2.06-1.086,0.754-1.086C309.762,145.588,308.417,146.674,309.723,146.674L309.723,146.674z"/>
	</g>
</g>
<g>
	<g>
		<path d="M97.003,122.776c-3.627-2.572-7.048-3.967-11.507-4.116c-0.354-0.012-1.25,0.185-1.356,0.615
			c-3.59,14.592,0.091,28.3,4.994,42.114c0.204,0.573,2.116,0,1.932-0.518c-4.878-13.747-8.59-27.322-5.006-41.886
			c-0.452,0.205-0.904,0.41-1.356,0.615c4.137,0.139,7.157,1.518,10.493,3.884C95.695,123.839,97.418,123.07,97.003,122.776
			L97.003,122.776z"/>
	</g>
</g>
<g>
	<g>
		<path d="M76.023,148.872c5.333,0,10.667,0,16,0c1.129,0,1.461-1.482,0.153-1.482c-5.333,0-10.667,0-16,0
			C75.048,147.39,74.716,148.872,76.023,148.872L76.023,148.872z"/>
	</g>
</g>
<g>
	<g>
		<path d="M107.128,141.23c-0.001,4.714-0.124,9.354-1,14c-0.161,0.852,1.802,0.554,1.943-0.199c0.876-4.646,0.999-9.285,1-14
			C109.072,140.122,107.128,140.49,107.128,141.23L107.128,141.23z"/>
	</g>
</g>
<g>
	<g>
		<path d="M106.736,130.725c0.782,0,2.035-1.188,0.728-1.188C106.682,129.537,105.429,130.725,106.736,130.725L106.736,130.725z"/>
	</g>
</g>
<g>
	<g>
		<path d="M112.2,145.498c0.805,0.521,2.023,0.002,2.1-0.953c0.206-2.568,0.002-4.993,0.857-7.485
			c0.979-2.859,3.911-4.113,6.725-2.833c2.201,1.002,3.679,3.583,4.717,5.61c1.835,3.584,3.181,8.386,2.539,12.426
			c-0.11,0.697,1.829,0.347,1.926-0.264c1.042-6.559-2.68-18.872-10.577-19.38c-3.035-0.195-5.693,1.526-7.026,4.155
			c-0.787,1.553-0.948,3.423-1.042,5.131c-0.037,0.676-0.034,1.354-0.034,2.031c-0.001,1.045-0.379,1.197,0.428,0.891
			c0.423-0.003,0.847-0.006,1.271-0.01c-0.027-0.018-0.055-0.035-0.083-0.054C113.454,144.41,111.727,145.19,112.2,145.498
			L112.2,145.498z"/>
	</g>
</g>
<g>
	<g>
		<path d="M145.723,150.724c-4.9-0.264-9.379,2.105-9.649,7.421c-0.306,6.006,5.139,9.684,10.612,9.391
			c0.525-0.028,2.109-0.877,0.828-0.809c-4.448,0.238-7.997-2.359-9.215-6.609c-1.27-4.431,1.273-8.844,6.178-8.579
			C144.903,151.561,146.698,150.776,145.723,150.724L145.723,150.724z"/>
	</g>
</g>
<g>
	<g>
		<path d="M147.134,136.39c0,10.667,0,21.333,0,32c0,0.576,1.932,0.217,1.932-0.518c0-10.667,0-21.333,0-32
			C149.066,135.296,147.134,135.655,147.134,136.39L147.134,136.39z"/>
	</g>
</g>
<g>
	<g>
		<path d="M174.802,124.057c0.062,13.342,1.261,26.654,1,40c-0.007,0.32,1.921,0.054,1.932-0.518c0.262-13.346-0.938-26.658-1-40
			C176.733,123.205,174.799,123.492,174.802,124.057L174.802,124.057z"/>
	</g>
</g>
<g>
	<g>
		<path d="M178.331,128.141c1.454-2.897,4.446-1.919,6.711-0.585c1.972,1.161,3.274,2.982,3.651,5.225
			c0.896,5.332-6.59,8.229-10.36,5.312c-0.526-0.407-2.302,0.354-1.797,0.744c4.808,3.718,14.072,0.409,14.13-6.064
			c0.055-6.253-10.942-10.997-14.128-4.651C176.132,128.93,178.059,128.68,178.331,128.141L178.331,128.141z"/>
	</g>
</g>
<g>
	<g>
		<path d="M202.895,128.429c-3.557-0.671-6.593-0.431-9.334,2.113c-3.182,2.952-2.623,7.979,1.614,9.506
			c2.566,0.925,6.677,1.582,8.938-0.543c2.566-2.411,1.963-6.793,1.952-9.966c-0.644,0.173-1.288,0.345-1.932,0.518
			c1.036,2.882,1.805,5.842,3,8.667c0.194,0.459,2.075-0.179,1.932-0.518c-1.195-2.825-1.964-5.785-3-8.667
			c-0.152-0.425-1.934,0.062-1.932,0.518c0.006,1.81,0.05,3.618-0.096,5.424c-0.252,3.114-1.506,5.002-4.979,4.458
			c-2.774-0.434-5.233-1.95-5.688-4.873c-0.271-1.743,0.891-3.438,1.936-4.678c1.619-1.92,3.888-1.618,5.998-1.221
			C201.754,129.252,203.419,128.527,202.895,128.429L202.895,128.429z"/>
	</g>
</g>
<g>
	<g>
		<path d="M213.134,131.057c0,3,0,6,0,9c0.644-0.173,1.288-0.345,1.932-0.518c-0.029-2.201-1.191-17.031,4.229-12.896
			c3.575,2.728,4.33,9.037,5.507,13.08c0.186,0.637,2.113,0.105,1.932-0.518c-1.124-3.862-2.786-15.064-8.725-14.3
			c-6.981,0.898-4.941,10.252-4.875,15.15c0.008,0.562,1.932,0.192,1.932-0.518c0-3,0-6,0-9
			C215.066,129.988,213.134,130.34,213.134,131.057L213.134,131.057z"/>
	</g>
</g>
<g>
	<g>
		<path d="M231.461,117.561c-0.045,7.954-0.568,15.903,0.341,23.829c0.09,0.78,2.028,0.323,1.932-0.518
			c-0.897-7.818-0.371-15.657-0.327-23.503C233.412,116.444,231.465,116.8,231.461,117.561L231.461,117.561z"/>
	</g>
</g>
<g>
	<g>
		<path d="M227.036,126.928c5.71,0.001,11.419,0.015,17.122,0.325c0.492,0.026,2.241-0.854,1.221-0.91
			c-5.845-0.318-11.694-0.34-17.546-0.341C227.222,126.002,225.739,126.928,227.036,126.928L227.036,126.928z"/>
	</g>
</g>
<g>
	<g>
		<path d="M250.866,130.986c-3.544-2.163-7.544-0.526-9.004,3.242c-1.605,4.146,3.78,7.389,5.677,10.286
			c0.097-0.229,0.194-0.459,0.291-0.689c-3.439,1.873-7.353-0.438-10.296-2.173c-0.565-0.333-2.343,0.479-1.531,0.957
			c4.08,2.405,8.561,4.264,13.036,1.827c0.255-0.14,0.471-0.415,0.291-0.689c-1.225-1.87-2.979-3.307-4.375-5.041
			c-0.733-0.911-1.17-1.9-1.358-3.04c-0.521-3.151,2.899-5.456,5.738-3.723C249.895,132.285,251.673,131.479,250.866,130.986
			L250.866,130.986z"/>
	</g>
</g>
<g>
	<g>
		<path d="M280.739,149.026c0.228-10.116-1.592-20.129-2.673-30.154c-0.079-0.733-2.019-0.287-1.932,0.518
			c1.069,9.919,2.89,19.836,2.663,29.846C278.778,150.119,280.722,149.747,280.739,149.026L280.739,149.026z"/>
	</g>
</g>
<g>
	<g>
		<path d="M270.684,135.844c7.766-0.623,15.545-0.665,23.332-0.666c1.107-0.001,1.479-1.426,0.168-1.426
			c-7.786,0.002-15.565,0.044-23.332,0.666C269.763,134.506,269.366,135.949,270.684,135.844L270.684,135.844z"/>
	</g>
</g>
<g>
	<g>
		<path d="M292.468,121.39c-0.036,10.688-0.568,21.388,1,32c0.091,0.613,1.795,0.059,1.927-0.396
			c1.237-4.257,1.533-8.791,2.593-13.104c0.343-1.395,1.319-6.698,3.665-4.991c2.216,1.612,3.121,5.196,4.481,7.491
			c0.351,0.593,2.188-0.086,1.932-0.518c-1.382-2.332-5.074-12.135-9.358-7.629c-4.398,4.626-3.552,13.232-5.234,19.025
			c0.642-0.132,1.284-0.265,1.927-0.396c-1.567-10.612-1.036-21.312-1-32C294.402,120.367,292.47,120.702,292.468,121.39
			L292.468,121.39z"/>
	</g>
</g>
<g>
	<g>
		<path d="M317.381,138.356c-5.474-0.759-9.171,2.371-8.579,8.033c0.015,0.138,0.261,0.174,0.353,0.183
			c4.29,0.415,7.063-2.566,9.236-5.927c-0.62,0.166-1.241,0.333-1.862,0.499c3.523,4.574,3.47,10.751,7,15.333
			c0.323,0.42,2.175-0.221,1.811-0.693c-3.523-4.574-3.47-10.751-7-15.333c-0.352-0.457-1.633,0.144-1.862,0.499
			c-0.614,0.948-5.759,7.199-5.853,3.226c-0.076-3.191,2.092-5.413,5.53-4.937C316.635,139.306,318.403,138.498,317.381,138.356
			L317.381,138.356z"/>
	</g>
</g>
<g>
	<g>
		<path d="M323.801,126.057c0.422,9.355,1.999,18.532,4,27.667c0.162,0.739,2.099,0.244,1.932-0.518
			c-2.001-9.135-3.577-18.312-4-27.667C325.702,124.841,323.765,125.254,323.801,126.057L323.801,126.057z"/>
	</g>
</g>
<g>
	<g>
		<path d="M316.814,138.214c6.222,0,12.444,0,18.667,0c0.432,0,2.21-0.832,1.24-0.832c-6.222,0-12.444,0-18.667,0
			C317.623,137.382,315.844,138.214,316.814,138.214L316.814,138.214z"/>
	</g>
</g>
<g>
	<g>
		<path d="M365.007,129.788c-4.16-2.46-10.41-4.371-12.819,1.308c-2.48,5.845,0.014,14.429,2.28,19.96
			c0.217,0.529,2.109-0.085,1.932-0.518c-1.735-4.235-2.743-8.795-3.026-13.36c-0.145-2.332,0.021-4.732,0.941-6.899
			c1.678-3.954,6.388-1.277,8.88,0.195C363.702,130.773,365.344,129.986,365.007,129.788L365.007,129.788z"/>
	</g>
</g>
<g>
	<g>
		<path d="M346.476,143.862c4.777,0,9.555,0,14.333,0c0.408,0,2.202-0.797,1.25-0.797c-4.777,0-9.555,0-14.333,0
			C347.318,143.065,345.524,143.862,346.476,143.862L346.476,143.862z"/>
	</g>
</g>
<g>
	<g>
		<path d="M372.131,138.904c0,3,0,6,0,9c0,0.874,1.939,0.486,1.939-0.215c0-3,0-6,0-9
			C374.071,137.815,372.131,138.203,372.131,138.904L372.131,138.904z"/>
	</g>
</g>
<g>
	<g>
		<path d="M372.681,129.835c1.103,0,1.484-1.408,0.174-1.408C371.752,128.427,371.371,129.835,372.681,129.835L372.681,129.835z"/>
	</g>
</g>
<g>
	<g>
		<path d="M387.135,123.39c0,12.335-0.018,24.669-0.333,37c-0.011,0.406,1.915,0.115,1.932-0.518
			c0.315-12.331,0.333-24.665,0.333-37C389.067,122.452,387.135,122.763,387.135,123.39L387.135,123.39z"/>
	</g>
</g>
<g>
	<g>
		<path d="M380.398,140.365c5.667,0,11.333,0,17,0c0.749,0,2.047-1.137,0.74-1.137c-5.667,0-11.333,0-17,0
			C380.389,139.229,379.091,140.365,380.398,140.365L380.398,140.365z"/>
	</g>
</g>
<g>
	<g>
		<path d="M404.715,155.646c0.68,0,2.072-1.03,0.77-1.03C404.805,154.616,403.413,155.646,404.715,155.646L404.715,155.646z"/>
	</g>
</g>
</svg>
