<?xml version="1.0" encoding="utf-8"?>
<!-- Generator: Adobe Illustrator 15.1.0, SVG Export Plug-In . SVG Version: 6.00 Build 0)  -->
<!DOCTYPE svg PUBLIC "-//W3C//DTD SVG 1.1//EN" "http://www.w3.org/Graphics/SVG/1.1/DTD/svg11.dtd">
<svg version="1.1" id="Layer_1" xmlns="http://www.w3.org/2000/svg" xmlns:xlink="http://www.w3.org/1999/xlink" x="0px" y="0px"
	 width="960px" height="844px" viewBox="0 0 960 844" enable-background="new 0 0 960 844" xml:space="preserve">
<image overflow="visible" enable-background="new    " width="465" height="785" xlink:href="Clothesliner/launchit/ClotheslinerTest/snowflake/createpant/static/images/drawnpant.png"  transform="matrix(1 0 0 1 245.7402 59)">
</image>
<path fill="#9F1229" d="M478.449,239.375"/>
<path fill="#9F1229" d="M478.031,114.225"/>
<g>
	<g>
		<path fill="#9F1229" d="M506.312,86.627c-19.27,0.836-37.298,13.917-55.782,4.957c-3.49-1.69-3.974,2.2-1.782,3.262
			c8.698,4.216,18.425,4.94,29.347,2.513c10.09-2.242,18.973-6.246,30.338-6.739C511.521,90.486,509.713,86.479,506.312,86.627
			L506.312,86.627z"/>
	</g>
	<g>
		<path fill="#9F1229" d="M501.717,206.021c-9.094-1.611-18.408-3.547-28.516-3.651c-11.742-0.122-20.195,3.201-25.875,7.05
			c-1.794,1.215,2.25,3.896,4.497,2.373c5.463-3.701,12.833-6.534,24.013-6.248c8.739,0.224,17.002,2.046,24.891,3.442
			C504.809,209.711,504.953,206.595,501.717,206.021L501.717,206.021z"/>
	</g>
	<g>
		<path fill="#9F1229" d="M470.729,107.002c0.301,28.754,0.158,57.507,0.46,86.261c0.007,0.619,0.497,1.383,2.257,1.715
			c1.578,0.297,2.848-0.248,2.841-0.758c-0.301-28.753-0.156-57.506-0.46-86.26c-0.004-0.619-0.494-1.383-2.257-1.714
			C471.994,105.948,470.723,106.493,470.729,107.002L470.729,107.002z"/>
	</g>
</g>
<g>
	<g>
		<path fill="#9F1229" d="M765.379,82.957c1.419-0.03,0.588-0.977-0.975-0.942l0,0"/>
	</g>
</g>
<g>
	<g>
		<path fill="#9F1229" d="M486.477,234.526c-4.486-0.382-9.083-0.842-14.07-0.87c-5.793-0.032-22.182-0.908-24.982-0.001
			c-0.885,0.287,13.329,2.578,14.437,2.219c2.695-0.872,6.33-1.539,11.846-1.468c4.312,0.056,17.902,4.637,21.794,4.969
			C497.515,239.547,488.073,234.662,486.477,234.526L486.477,234.526z"/>
	</g>
</g>
<g>
	<g>
		<path fill="#9F1229" d="M471.324,210.851c0.282,6.787,0.177,13.574,0.46,20.36c0.008,0.146,0.438,0.327,1.976,0.407
			c1.38,0.071,2.21-6.844,2.203-6.964c-0.282-6.787,0.105-6.787-0.18-13.574c-0.005-0.146-0.434-0.327-1.974-0.406
			C472.43,210.603,471.316,210.731,471.324,210.851L471.324,210.851z"/>
	</g>
</g>
</svg>
