<?xml version="1.0" encoding="utf-8"?>
<!-- Generator: Adobe Illustrator 15.1.0, SVG Export Plug-In . SVG Version: 6.00 Build 0)  -->
<!DOCTYPE svg PUBLIC "-//W3C//DTD SVG 1.1//EN" "http://www.w3.org/Graphics/SVG/1.1/DTD/svg11.dtd">
<svg version="1.1" id="Layer_1" xmlns="http://www.w3.org/2000/svg" xmlns:xlink="http://www.w3.org/1999/xlink" x="0px" y="0px"
	 width="960px" height="844px" viewBox="0 0 960 844" enable-background="new 0 0 960 844" xml:space="preserve">
<g id="Layer_1_1_">
	
		<image overflow="visible" enable-background="new    " width="465" height="785" xlink:href="Clothesliner/launchit/ClotheslinerTest/snowflake/createpant/static/images/drawnpant.png"  transform="matrix(1 0 0 1 245.7402 59)">
	</image>
	<g>
		<g>
			<g>
				<path fill="#9F1229" d="M295.134,7.654c1.659,18.766,27.028,36.312,9.716,54.324c-3.267,3.399,4.269,3.866,6.32,1.731
					c8.145-8.475,9.527-17.949,4.804-28.586c-4.362-9.825-12.135-18.471-13.113-29.54C302.596,2.576,294.842,4.343,295.134,7.654
					L295.134,7.654z"/>
			</g>
		</g>
		<g>
			<g>
				<path fill="#9F1229" d="M637.053,7.487c-4.006,9.261-8.824,18.75-9.057,29.047c-0.271,11.961,8.062,20.565,17.706,26.348
					c3.045,1.826,9.741-2.295,5.924-4.584c-9.272-5.56-16.38-13.064-15.694-24.452c0.536-8.898,5.069-17.32,8.543-25.352
					C646.274,4.334,638.479,4.189,637.053,7.487L637.053,7.487z"/>
			</g>
		</g>
		<g>
			<path fill="#9F1229" d="M350.768,37.267c87.655-0.347,163.728-0.193,254.945-0.554"/>
			<g>
				<path fill="#9F1229" d="M349.361,39.817c84.981-0.333,169.963-0.221,254.946-0.554c1.83-0.007,4.086-0.498,5.062-2.259
					c0.871-1.577-0.742-2.848-2.248-2.842c-84.98,0.333-169.963,0.221-254.945,0.554c-1.83,0.007-4.087,0.498-5.061,2.259
					C346.242,38.552,347.856,39.823,349.361,39.817L349.361,39.817z"/>
			</g>
		</g>
	</g>
</g>
<g id="annotation">
</g>
</svg>
