<?xml version="1.0" encoding="utf-8"?>
<!-- Generator: Adobe Illustrator 15.1.0, SVG Export Plug-In . SVG Version: 6.00 Build 0)  -->
<!DOCTYPE svg PUBLIC "-//W3C//DTD SVG 1.1//EN" "http://www.w3.org/Graphics/SVG/1.1/DTD/svg11.dtd">
<svg version="1.1" id="Layer_1" xmlns="http://www.w3.org/2000/svg" xmlns:xlink="http://www.w3.org/1999/xlink" x="0px" y="0px"
	 width="960px" height="844px" viewBox="0 0 960 844" enable-background="new 0 0 960 844" xml:space="preserve">
<g id="Layer_1_1_">
	
		<image overflow="visible" enable-background="new    " width="465" height="785" xlink:href="Clothesliner/launchit/ClotheslinerTest/snowflake/createpant/static/images/drawnpant.png"  transform="matrix(1 0 0 1 245.7402 59)">
	</image>
	<g>
		<g>
			<g>
				<path fill="#9F1229" d="M509.329,782.614c0.376,6.263,16.894,33.563,5.761,52.957c-1.994,3.474,5.835,3.018,7.283,0.494
					c4.89-8.519,5.358-17.224,2.801-26.574c-2.669-9.757-7.5-18.678-8.116-28.947C516.878,777.571,509.13,779.289,509.329,782.614
					L509.329,782.614z"/>
			</g>
		</g>
		<g>
			<g>
				<path fill="#9F1229" d="M716.069,783.747c-4.832,18.467-9.872,36.933,5.254,52.084c2.571,2.576,9.864-0.656,7.057-3.469
					c-6.828-6.841-10.104-14.699-9.702-24.375c0.351-8.418,3.121-16.677,5.237-24.765
					C724.923,779.371,716.991,780.224,716.069,783.747L716.069,783.747z"/>
			</g>
		</g>
		<g>
			<path fill="#9F1229" d="M544.562,810.308c53.037-0.209,99.07,2.062,154.266,1.846"/>
			<g>
				<path fill="#9F1229" d="M543.155,812.858c51.432-0.177,102.835,2.02,154.266,1.844c1.83-0.006,4.088-0.498,5.062-2.258
					c0.871-1.578-0.742-2.849-2.246-2.843c-51.433,0.176-102.835-2.02-154.267-1.845c-1.83,0.007-4.088,0.499-5.061,2.259
					C540.036,811.594,541.651,812.864,543.155,812.858L543.155,812.858z"/>
			</g>
		</g>
	</g>
</g>
<g id="annotation">
</g>
</svg>
