<?xml version="1.0" encoding="utf-8"?>
<!-- Generator: Adobe Illustrator 15.1.0, SVG Export Plug-In . SVG Version: 6.00 Build 0)  -->
<!DOCTYPE svg PUBLIC "-//W3C//DTD SVG 1.1//EN" "http://www.w3.org/Graphics/SVG/1.1/DTD/svg11.dtd">
<svg version="1.1" id="Layer_1" xmlns="http://www.w3.org/2000/svg" xmlns:xlink="http://www.w3.org/1999/xlink" x="0px" y="0px"
	 width="960px" height="844px" viewBox="0 0 960 844" enable-background="new 0 0 960 844" xml:space="preserve">
<image overflow="visible" enable-background="new    " width="465" height="785" xlink:href="Clothesliner/launchit/ClotheslinerTest/snowflake/createpant/static/images/drawnpant.png"  transform="matrix(1 0 0 1 245.7402 59)">
</image>
<g>
	<g>
		<path fill="#9F1229" d="M487.722,226.917c-19.269,1.222-37.306,20.209-55.784,7.219c-3.489-2.451-3.975,3.194-1.784,4.733
			c8.696,6.112,18.423,7.158,29.347,3.631c10.092-3.257,18.976-9.071,30.342-9.792C492.93,232.513,491.123,226.701,487.722,226.917
			L487.722,226.917z"/>
	</g>
</g>
<g>
	<g>
		<path fill="#9F1229" d="M485.498,820.316c-9.091-2.333-18.405-5.138-28.514-5.283c-11.742-0.171-20.196,4.653-25.879,10.24
			c-1.795,1.765,2.248,5.652,4.497,3.441c5.464-5.372,12.836-9.486,24.016-9.077c8.737,0.321,17.001,2.96,24.887,4.981
			C488.587,825.668,488.733,821.147,485.498,820.316L485.498,820.316z"/>
	</g>
</g>
<g>
	<path fill="#9F1229" d="M456.525,271.719c0.156,176.987-0.164,330.589-0.002,514.77"/>
	<g>
		<path fill="#9F1229" d="M453.979,268.875c0.146,171.589-0.15,343.179-0.004,514.771c0.005,3.695,0.49,8.25,2.248,10.222
			c1.576,1.762,2.85-1.495,2.846-4.536c-0.146-171.586,0.151-343.178,0.003-514.769c-0.002-3.695-0.487-8.254-2.247-10.222
			C455.25,262.579,453.976,265.836,453.979,268.875L453.979,268.875z"/>
	</g>
</g>
</svg>
