<?xml version="1.0" encoding="utf-8"?>
<!-- Generator: Adobe Illustrator 15.1.0, SVG Export Plug-In . SVG Version: 6.00 Build 0)  -->
<!DOCTYPE svg PUBLIC "-//W3C//DTD SVG 1.1//EN" "http://www.w3.org/Graphics/SVG/1.1/DTD/svg11.dtd">
<svg version="1.1" id="Layer_1" xmlns="http://www.w3.org/2000/svg" xmlns:xlink="http://www.w3.org/1999/xlink" x="0px" y="0px"
	 width="960px" height="844px" viewBox="0 0 960 844" enable-background="new 0 0 960 844" xml:space="preserve">
<g id="Layer_1_1_">
	
		<image overflow="visible" enable-background="new    " width="465" height="785" xlink:href="Clothesliner/launchit/ClotheslinerTest/snowflake/createpant/static/images/drawnpant.png"  transform="matrix(1 0 0 1 245.7402 59)">
	</image>
	<g>
		<g>
			<g>
				<path fill="#9F1229" d="M465.787,249.553c1.101,18.336,16.169,34.823,5.76,52.957c-1.994,3.473,5.834,3.018,7.283,0.493
					c4.89-8.517,5.357-17.222,2.801-26.573c-2.668-9.757-7.5-18.678-8.117-28.947C473.335,244.509,465.587,246.227,465.787,249.553
					L465.787,249.553z"/>
			</g>
		</g>
		<g>
			<g>
				<path fill="#9F1229" d="M672.526,250.685c-4.832,18.467-9.872,36.933,5.254,52.085c2.571,2.576,9.864-0.656,7.057-3.47
					c-6.828-6.84-10.104-14.698-9.702-24.375c0.351-8.418,3.121-16.675,5.237-24.764
					C681.38,246.309,673.448,247.161,672.526,250.685L672.526,250.685z"/>
			</g>
		</g>
		<g>
			<path fill="#9F1229" d="M501.02,277.246c53.038-0.21,99.071,2.062,154.267,1.844"/>
			<g>
				<path fill="#9F1229" d="M499.612,279.796c51.432-0.175,102.835,2.02,154.266,1.844c1.83-0.006,4.088-0.499,5.062-2.259
					c0.871-1.577-0.742-2.847-2.246-2.842c-51.433,0.175-102.835-2.02-154.267-1.844c-1.83,0.006-4.088,0.499-5.061,2.259
					C496.493,278.532,498.108,279.802,499.612,279.796L499.612,279.796z"/>
			</g>
		</g>
	</g>
</g>
<g id="annotation">
</g>
</svg>
