<?xml version="1.0" encoding="utf-8"?>
<!-- Generator: Adobe Illustrator 15.1.0, SVG Export Plug-In . SVG Version: 6.00 Build 0)  -->
<!DOCTYPE svg PUBLIC "-//W3C//DTD SVG 1.1//EN" "http://www.w3.org/Graphics/SVG/1.1/DTD/svg11.dtd">
<svg version="1.1" id="Layer_1" xmlns="http://www.w3.org/2000/svg" xmlns:xlink="http://www.w3.org/1999/xlink" x="0px" y="0px"
	 width="960px" height="844px" viewBox="0 0 960 844" enable-background="new 0 0 960 844" xml:space="preserve">
<image overflow="visible" enable-background="new    " width="465" height="785" xlink:href="Clothesliner/launchit/ClotheslinerTest/snowflake/createpant/static/images/drawnpant.png"  transform="matrix(1 0 0 1 245.7402 59)">
</image>
<g>
	<g>
		<path fill="#9F1229" d="M449.766,199.747c1.101,18.336,16.169,34.823,5.76,52.957c-1.994,3.473,5.834,3.018,7.283,0.493
			c4.89-8.517,5.357-17.222,2.801-26.573c-6.238-22.812-8.34-32.623-8.117-28.947C457.313,194.703,449.565,196.421,449.766,199.747
			L449.766,199.747z"/>
	</g>
</g>
<g>
	<g>
		<path fill="#9F1229" d="M673.859,202.342c-4.832,18.467-9.872,36.933,5.254,52.085c2.571,2.576,9.864-0.656,7.057-3.47
			c-6.828-6.84-10.104-14.698-9.702-24.375c0.351-8.418,3.121-16.675,5.237-24.764C682.713,197.966,674.781,198.818,673.859,202.342
			L673.859,202.342z"/>
	</g>
</g>
<g>
	<path fill="#9F1229" d="M483.899,226.408c53.038-0.21,99.071,2.062,154.267,1.844"/>
	<path fill="#9F1229" d="M482.492,228.958c51.432-0.175,102.835,2.02,154.266,1.844c1.83-0.006,4.088-0.499,5.062-2.259
		c0.871-1.577-0.742-2.847-2.246-2.842c-51.433,0.175-102.835-2.02-154.267-1.844c-1.83,0.006-4.088,0.499-5.061,2.259
		C479.373,227.694,480.988,228.963,482.492,228.958L482.492,228.958z"/>
</g>
</svg>
