<?xml version="1.0" encoding="utf-8"?>
<!-- Generator: Adobe Illustrator 15.1.0, SVG Export Plug-In . SVG Version: 6.00 Build 0)  -->
<!DOCTYPE svg PUBLIC "-//W3C//DTD SVG 1.1//EN" "http://www.w3.org/Graphics/SVG/1.1/DTD/svg11.dtd">
<svg version="1.1" id="Layer_1" xmlns="http://www.w3.org/2000/svg" xmlns:xlink="http://www.w3.org/1999/xlink" x="0px" y="0px"
	 width="960px" height="844px" viewBox="0 0 960 844" enable-background="new 0 0 960 844" xml:space="preserve">
<image overflow="visible" enable-background="new    " width="465" height="785" xlink:href="Clothesliner/launchit/ClotheslinerTest/snowflake/createpant/static/images/drawnpant.png"  transform="matrix(1 0 0 1 245.7402 59)">
</image>
<g>
	<g>
		<path fill="#9F1229" d="M729.558,87.536c-19.269,1.54-37.311,25.386-55.786,9.08c-3.488-3.077-3.976,4.012-1.785,5.944
			c8.694,7.671,18.421,8.982,29.346,4.551c10.093-4.093,18.978-11.396,30.345-12.304C734.765,94.562,732.959,87.265,729.558,87.536
			L729.558,87.536z"/>
	</g>
</g>
<g>
	<g>
		<path fill="#9F1229" d="M727.17,832.609c-9.09-2.927-18.403-6.446-28.512-6.626c-11.742-0.211-20.197,5.849-25.882,12.865
			c-1.795,2.216,2.246,7.097,4.496,4.319c5.466-6.747,12.839-11.914,24.019-11.403c8.736,0.4,17,3.711,24.885,6.248
			C730.258,839.328,730.405,833.651,727.17,832.609L727.17,832.609z"/>
	</g>
</g>
<g>
	<path fill="#9F1229" d="M698.35,143.798c0.106,222.225-0.256,415.087-0.145,646.344"/>
	<g>
		<path fill="#9F1229" d="M695.804,140.228c0.1,215.447-0.245,430.896-0.146,646.347c0.004,4.64,0.487,10.358,2.245,12.834
			c1.575,2.211,2.85-1.878,2.847-5.696c-0.099-215.444,0.246-430.894,0.146-646.344c-0.001-4.64-0.485-10.363-2.244-12.834
			C697.076,132.322,695.801,136.412,695.804,140.228L695.804,140.228z"/>
	</g>
</g>
</svg>
