<?xml version="1.0" encoding="utf-8"?>
<!-- Generator: Adobe Illustrator 15.1.0, SVG Export Plug-In . SVG Version: 6.00 Build 0)  -->
<!DOCTYPE svg PUBLIC "-//W3C//DTD SVG 1.1//EN" "http://www.w3.org/Graphics/SVG/1.1/DTD/svg11.dtd">
<svg version="1.1" id="Layer_1" xmlns="http://www.w3.org/2000/svg" xmlns:xlink="http://www.w3.org/1999/xlink" x="0px" y="0px"
	 width="960px" height="844px" viewBox="0 0 960 844" enable-background="new 0 0 960 844" xml:space="preserve">
<g id="Layer_1_1_">
	
		<image overflow="visible" enable-background="new    " width="465" height="785" xlink:href="Clothesliner/launchit/ClotheslinerTest/snowflake/createpant/static/images/drawnpant.png"  transform="matrix(1 0 0 1 245.7402 59)">
	</image>
	<g>
		<g>
			<g>
				<path fill="#9F1229" d="M489.659,439.045c1.102,18.337,16.17,34.823,5.761,52.957c-1.994,3.474,5.835,3.018,7.283,0.494
					c4.89-8.519,5.357-17.223,2.801-26.574c-2.669-9.757-7.5-18.678-8.116-28.947C497.208,434.002,489.46,435.72,489.659,439.045
					L489.659,439.045z"/>
			</g>
		</g>
		<g>
			<g>
				<path fill="#9F1229" d="M696.399,440.178c-4.832,18.467-9.872,36.934,5.254,52.084c2.571,2.576,9.864-0.655,7.057-3.469
					c-6.828-6.84-10.104-14.699-9.702-24.375c0.351-8.418,3.121-16.676,5.237-24.764
					C705.253,435.802,697.321,436.654,696.399,440.178L696.399,440.178z"/>
			</g>
		</g>
		<g>
			<path fill="#9F1229" d="M524.893,466.738c53.038-0.209,99.071,2.062,154.267,1.845"/>
			<g>
				<path fill="#9F1229" d="M523.485,469.289c51.432-0.176,102.835,2.02,154.266,1.844c1.83-0.006,4.088-0.498,5.061-2.258
					c0.872-1.578-0.741-2.848-2.245-2.842c-51.433,0.175-102.836-2.021-154.267-1.846c-1.83,0.008-4.088,0.499-5.061,2.26
					C520.366,468.024,521.981,469.295,523.485,469.289L523.485,469.289z"/>
			</g>
		</g>
	</g>
</g>
<g id="annotation">
</g>
</svg>
