<?xml version="1.0" encoding="utf-8"?>
<!-- Generator: Adobe Illustrator 15.1.0, SVG Export Plug-In . SVG Version: 6.00 Build 0)  -->
<!DOCTYPE svg PUBLIC "-//W3C//DTD SVG 1.1//EN" "http://www.w3.org/Graphics/SVG/1.1/DTD/svg11.dtd">
<svg version="1.1" id="Layer_1" xmlns="http://www.w3.org/2000/svg" xmlns:xlink="http://www.w3.org/1999/xlink" x="0px" y="0px"
	 width="960px" height="844px" viewBox="0 0 960 844" enable-background="new 0 0 960 844" xml:space="preserve">
<image overflow="visible" enable-background="new    " width="465" height="785" xlink:href="Clothesliner/launchit/ClotheslinerTest/snowflake/createpant/static/images/drawnpant.png"  transform="matrix(1 0 0 1 245.7402 59)">
</image>
<g>
	<g>
		<path fill="#9F1229" d="M498.076,83.952c-19.269,1.222-37.306,20.209-55.785,7.219c-3.489-2.451-3.975,3.194-1.784,4.733
			c8.696,6.112,18.423,7.158,29.347,3.631c10.092-3.257,18.976-9.071,30.341-9.792C503.283,89.549,501.477,83.737,498.076,83.952
			L498.076,83.952z"/>
	</g>
</g>
<g>
	<g>
		<path fill="#9F1229" d="M486.416,232.179c-9.091-2.333-18.405-5.138-28.514-5.283c-11.742-0.171-20.196,4.653-25.879,10.24
			c-1.795,1.765,2.248,5.652,4.497,3.441c5.464-5.372,12.836-9.486,24.016-9.077c8.737,0.321,17.001,2.96,24.888,4.981
			C489.506,237.53,489.652,233.01,486.416,232.179L486.416,232.179z"/>
	</g>
</g>
<g>
	<path fill="#9F1229" d="M457.133,106.506c0.307,37.237,0.118,69.553,0.437,108.303"/>
	<g>
		<path fill="#9F1229" d="M454.585,105.906c0.293,36.101,0.142,72.202,0.435,108.304c0.008,0.777,0.498,1.736,2.257,2.152
			c1.578,0.372,2.848-0.312,2.842-0.952c-0.293-36.101-0.141-72.202-0.436-108.303c-0.005-0.777-0.495-1.737-2.256-2.152
			C455.85,104.583,454.578,105.267,454.585,105.906L454.585,105.906z"/>
	</g>
</g>
</svg>
